<svg xmlns="http://www.w3.org/2000/svg" viewBox="0 0 150 187.5" x="0px" y="0px"><title>Tavola disegno 1991</title><path d="M62.67,60.3h0a1.24,1.24,0,0,0,1.13-.72,2.4,2.4,0,0,0-.19-2.36,1.56,1.56,0,0,0-1.58-.64c-.73.12-1.1,1.09-1,2A1.71,1.71,0,0,0,62.67,60.3Z"/><path d="M49.33,60.9a1.23,1.23,0,0,0,1.13-.72,2.41,2.41,0,0,0-.19-2.36,1.53,1.53,0,0,0-1.58-.63c-.73.11-1.1,1.08-1,2a1.7,1.7,0,0,0,1.67,1.75Z"/><path d="M79.64,128.7l0,0c-1.51.77-2.22,2.69-1.78,4.79a5.34,5.34,0,0,0,5,4.36h.33A4,4,0,0,0,87,135.67a5.45,5.45,0,0,0-1-5.74C84.49,128.26,82.17,127.81,79.64,128.7Zm4.16,5.88a1.81,1.81,0,0,1-1.87-.1c-.9-.44-1.3-1.14-1-1.81a1.78,1.78,0,0,1,1.71-1,2.85,2.85,0,0,1,.78.12,1.6,1.6,0,0,1,1,1.34A1.56,1.56,0,0,1,83.8,134.58Z"/><path d="M66.64,131.14c-.9-.66-2.82-1.54-5.44.09h0c-1.41,1-1.85,3.21-1,5.24a4.64,4.64,0,0,0,4.3,3.1,5.78,5.78,0,0,0,.71-.05,3.88,3.88,0,0,0,3.51-2.91A5.49,5.49,0,0,0,66.64,131.14Zm-1.3,5a1,1,0,0,1-1.17,0,2.74,2.74,0,0,1-1.33-2,.45.45,0,0,1,.2-.41.23.23,0,0,0,.14,0c.7-.43,1.8.14,2.32.93A1,1,0,0,1,65.34,136.18Z"/><path d="M114.54,121.29c-4.63-5.82-16.8-15.27-23.49-15.91a5.53,5.53,0,0,0-1.75.08,32.64,32.64,0,0,0-5.1.25l-1.53,0a26.21,26.21,0,0,0,0-3.12l0-.72c0-.37,0-.73,0-1.08h0c0-.8.07-1.74.13-2.72a33.56,33.56,0,0,0,.06-5.25,28.1,28.1,0,0,0,12.47-6.71c6.41-6.27,6.36-15.32,5.07-23.75a4.89,4.89,0,0,0,.55,0,5.66,5.66,0,0,0,2.82-.81,5.86,5.86,0,0,0,2.91-3.91c.45-2.8-1.33-8.09-2.75-10.5-1.62-2.75-3.61-2.54-6.37-2.27l-.37,0-.31,0-.5,0C90.9,28,82.35,19.38,70.82,19.38h-.11a.29.29,0,0,0-.19-.07c-.91,0-1.87,0-2.85.11a29.8,29.8,0,0,0-.42-5.13c-.09-.61-.21-1.35-.35-2.36l.16-.08.4-.22.24-.14.39-.27.22-.16.39-.34.18-.17A7,7,0,0,0,69.4,10a4.53,4.53,0,0,0,1.13-4,4.22,4.22,0,0,0-2.4-2.5A8.92,8.92,0,0,0,61.69,3a.25.25,0,0,0-.15.15A3.27,3.27,0,0,0,60.13,6a6.56,6.56,0,0,0,0,.76,1,1,0,0,0,0,.17,6.54,6.54,0,0,0,.13.75s0,.09,0,.13c.06.23.13.47.21.7a.36.36,0,0,1,0,.11,7.84,7.84,0,0,0,.32.72l.08.15a7.84,7.84,0,0,0,.41.69h0a7.31,7.31,0,0,0,.48.62l.1.11a5.29,5.29,0,0,0,.54.52l.1.07a3.45,3.45,0,0,0,.56.38l.06,0a3.9,3.9,0,0,0,0,2.27,12.23,12.23,0,0,1,.29,2.52.28.28,0,0,0,0,.13c0,.51.13,1.91.2,3a50.12,50.12,0,0,0-7.89,1.9c-4.09,1.36-9.51,3.83-12.19,7.89-4.29,6.5-5.38,15.17-5.78,23.12-1.73.24-2.52.83-3.42,3.15-1,2.61-1.9,8.11-1,10.8a7,7,0,0,0,4.48,4c.65,6.15,2.36,12.12,6.44,16.91,2.93,3.45,7.92,7.67,18.37,7.91a51.3,51.3,0,0,0,.26,5.77c.08,1,.15,1.77.15,2.18a19.86,19.86,0,0,0,.37,2.9c-1.9.1-4.51.28-6.75.59a4.14,4.14,0,0,0-.9.13l-.59,0c-2.8.25-5.13.45-6.46,2.84a5.38,5.38,0,0,0-1.18.18c-7.34,1-13.5,6.18-17.34,14.56a52.49,52.49,0,0,0-3.82,13.46l0,.26c-.37,2.2-.62,4.22.25,4.69a.72.72,0,0,0,.38.1,2.48,2.48,0,0,0,1.49-.82c1.36-1.23,1.77-4.42,2.13-7.24a26.6,26.6,0,0,1,.55-3.37q.49-1.77,1.08-3.39A17.07,17.07,0,0,0,37,131a70.72,70.72,0,0,0-2.25,7c-.16.58-.29,1.21-.42,1.82a18.33,18.33,0,0,1-.73,2.81,15,15,0,0,0-.66,2.13c-.29,1.37-.22,3,.62,3.38a.85.85,0,0,0,.35.08c.48,0,1-.41,1.59-1.21,1-1.43,1.47-4.32,1.89-7.1a28.15,28.15,0,0,1,.94-4.65c1.77-5,5-10.75,8.26-12.41a7.11,7.11,0,0,1,1.83-.58c.12.86.22,1.7.29,2.52.44,5.73.74,10.87,0,15.88-.5,3.33-.07,5.69,1.09,5.87H50c.83,0,1.54-1.22,1.87-3.25a41.58,41.58,0,0,0,.2-6.92l-.27-5.9c-.13-2.82-.25-5.72-.36-8.6a38.73,38.73,0,0,0,5.08.28c2.38,0,4.9-.12,7.07-.22,1.61-.07,3-.14,4-.14h1.91c6.38,0,19.66,0,23.12-.52l.45-.1c0,.57,0,1.16-.07,1.79l0,.56c-.57,13.12-.38,20.34.56,21.46a1.39,1.39,0,0,0,1,.62.8.8,0,0,0,.26-.05c1.18-.46,1.27-4.24,1-10.19,0-.67,0-1.18,0-1.44,0-1.07,0-2.14,0-3.21,0-3,.08-6.11,0-9.21l.8.41a27,27,0,0,1,5.46,3.29c5.56,5.06,7.94,9,9.42,15.57h0v.06a12.3,12.3,0,0,0,1.54,4.09,1.66,1.66,0,0,0,1.29.84,1.27,1.27,0,0,0,.28,0,1.28,1.28,0,0,0,.87-.68c.71-1.36-.48-4.35-1.26-6.33l-.43-1.12c-.25-.77-.53-1.52-.83-2.26a17.66,17.66,0,0,0,5-1.62,35.82,35.82,0,0,1,1.15,4l0,.17c.62,2.84,1.37,5.47,2.61,5.47h.08a1.88,1.88,0,0,0,1.64-1.18C125.08,138.36,119.15,127.09,114.54,121.29ZM37.73,66.77h0c-.51-.15-.93-.79-1.18-1.82-.56-2.36-.08-6.45,1.27-7.9,0,.52,0,1.05-.05,1.56C37.65,61.26,37.61,64,37.73,66.77Zm.93,60.6a12.41,12.41,0,0,0-4.82-2.5,28,28,0,0,1,2.67-4.65A14,14,0,0,1,39.74,117a24.14,24.14,0,0,0,2.95,4.76A21.16,21.16,0,0,0,38.66,127.37Zm6.81-7.66a10.93,10.93,0,0,0-2.77-4.32c.8-.35,1.61-.67,2.41-1s1.87-.72,2.8-1.15a22.57,22.57,0,0,0,.09,5.44A10.66,10.66,0,0,0,45.47,119.71ZM98.69,48.54a3.47,3.47,0,0,1,2.06.18c1.63,1.08,2.85,5.21,2.67,7.71-.07,1-.38,1.76-.86,2s-1.14.47-1.74.69l-.94.36q-1.06-5.85-2.46-10.87A8.93,8.93,0,0,0,98.69,48.54ZM63.3,5.85c2.56.13,3.1.86,3.22,1.17a1,1,0,0,1-.39,1.06,1.73,1.73,0,0,1-1.82.39C63.63,8.16,63.28,7.23,63.3,5.85ZM40.84,52.74c.1-.8.21-1.64.31-2.52.79-6.57,1.78-14.74,5.61-19.4,4.46-5.42,13.49-6.64,20.74-7.63,1.49-.2,2.89-.39,4.18-.61h0C82.5,23.71,90.29,33,94.84,50.25A88.24,88.24,0,0,1,98,66.46c-2.83,1.05-6.2.84-9.48.63-1.53-.09-3-.18-4.34-.15-5.22.14-10.89.44-17.83,1-5.51.41-11.08,1-16.47,1.59l-.58.06-.71.07a65.52,65.52,0,0,0-8,1.12A67.82,67.82,0,0,1,40.84,52.74Zm9.1,35.58C45.38,85,42.42,80.06,41,73.43a14.63,14.63,0,0,0,2.2.15,80.54,80.54,0,0,0,12.92-1.69c2.07-.38,3.85-.71,5.07-.85a168.88,168.88,0,0,1,16.93-.93c2.27,0,4.58,0,6.82,0,3.13,0,6.37.08,9.55,0h.72a12,12,0,0,0,2.84-.26c-.1,5.09-1.36,9.94-4.82,13.67-4.88,5.27-13.14,7-20.5,8.11C64.94,92.83,56.77,93.28,49.94,88.32Zm28.93,16.09s0,0,0,.08c0,.51,0,1,0,1.39l-2.75.11c-3,.13-5.79.26-9.51.29a28,28,0,0,0,.26-4.49,30.67,30.67,0,0,0,4.49.24c2.63,0,5.58-.14,7.51-.28A25.13,25.13,0,0,0,78.87,104.41Zm-6.23-6.32c-2.17,0-4.23,0-6,.17a17.76,17.76,0,0,0-.52-2.8c1.27-.07,2.61-.18,4-.36,3-.4,6.25-.81,9.41-1.47-.21,1.16-.37,2.71-.49,4.29C77.12,98.06,74.86,98.07,72.64,98.09Zm-2.55,20.66-3.84-.06-2.25,0c-3.91,0-9.75-.09-12.73-.25,0-.27,0-.58-.05-.93-.14-2.06-.38-5.51.86-6.43a7.35,7.35,0,0,1,2.21-.75c.55-.13,1.1-.26,1.59-.43,3.4-.32,9.44-.8,13.15-.92,2.86-.09,7.39-.24,11.44-.41h0c3.28-.14,6.24-.28,7.73-.41a5.94,5.94,0,0,1,1.8.17,4.49,4.49,0,0,0,.79.13c1.1.76,2.09,3.17,2.19,9.31C85.76,119,77.81,118.88,70.09,118.75Zm29.73,1a11.77,11.77,0,0,0-4.13-1.83c0-.72,0-1.43-.08-2.14,0-.43,0-.89,0-1.37a19.44,19.44,0,0,0-.63-5.2,63,63,0,0,1,6.92,4.25c.42.3.85.63,1.27,1A11.43,11.43,0,0,0,99.82,119.76Zm6.92,5.69a27,27,0,0,0-3-2.83l-.37-.3-1.12-.87c.33-.53.9-1.37,1.4-2.1,1-1.39,1.57-2.32,1.94-2.94a56.38,56.38,0,0,1,5.24,5.13A26.56,26.56,0,0,0,106.74,125.45Zm7.6,6.48a26,26,0,0,0-2.57.84,32.22,32.22,0,0,0-3.14-5.05,13.1,13.1,0,0,0,3.81-4.26l.19.23a32.79,32.79,0,0,1,4.31,7.33A15.25,15.25,0,0,1,114.34,131.93Z"/></svg>
